<svg width="30" height="30" viewBox="0 0 30 30" fill="none" xmlns="http://www.w3.org/2000/svg">
<path d="M15.0001 1.1521C7.3519 1.1521 1.1521 7.3519 1.1521 15.0001C1.1521 22.6483 7.3519 28.8481 15.0001 28.8481C22.6483 28.8481 28.8481 22.6483 28.8481 15.0001C28.8481 7.3519 22.6483 1.1521 15.0001 1.1521ZM22.4425 20.2552C21.8515 20.6248 19.45 20.7349 18.8686 20.3125C18.5497 20.0809 18.2581 19.7911 17.9812 19.5151C17.7874 19.3222 17.5675 19.2286 17.401 19.0192C17.2651 18.8479 17.1718 18.6457 17.0287 18.4765C16.7872 18.1927 16.4155 17.9512 16.1215 18.298C15.6787 18.8197 16.1911 19.8442 15.6007 20.2339C15.4027 20.3647 15.2029 20.4025 14.9554 20.3839L14.4073 20.4088C14.0854 20.4151 13.5754 20.4181 13.2091 20.3521C12.8005 20.2783 12.463 20.0551 12.0934 19.8913C11.392 19.5802 10.7239 19.1563 10.2154 18.5692C8.8315 16.9702 6.9727 14.7712 6.2506 12.7609C6.1021 12.3478 5.7097 11.5297 6.0817 11.1754C6.5875 10.8079 9.07 10.7044 9.4573 11.2726C9.6145 11.5036 9.7138 11.8414 9.8251 12.1033C9.9637 12.4297 10.0387 12.7372 10.2553 13.0261C10.447 13.2823 10.5883 13.54 10.7365 13.8208C10.903 14.1361 11.0602 14.4385 11.2627 14.7286C11.4001 14.926 11.7634 15.3187 11.9929 15.3478C12.5533 15.4195 12.5185 14.0578 12.4768 13.7254C12.4369 13.405 12.4267 13.0651 12.4372 12.7402C12.4462 12.463 12.4711 12.0724 12.307 11.8462C12.0394 11.4772 11.4433 11.7532 11.3968 11.2573C11.4952 11.1166 11.4745 10.9918 12.1318 10.7752C12.6496 10.6051 12.9841 10.6105 13.3255 10.6378C14.0215 10.6936 14.7595 10.5052 15.4315 10.7308C16.0735 10.9471 15.9742 11.8594 15.9526 12.406C15.9235 13.1521 15.9547 13.8805 15.9526 14.638C15.9517 14.9827 15.9379 15.3184 16.3585 15.2902C16.7527 15.2641 16.7929 14.9323 16.981 14.6587C17.2426 14.2771 17.4829 13.8901 17.7493 13.51C18.1084 12.9961 18.217 12.4186 18.5551 11.8921C18.676 11.704 18.7801 11.3032 18.9664 11.1544C19.1074 11.0413 19.3753 11.1004 19.546 11.1004H19.9519C20.2624 11.1004 20.5792 11.098 20.8984 11.1091C21.358 11.125 21.8728 11.0194 22.3285 11.0839C24.295 11.3614 19.8568 15.5653 20.0878 16.3159C20.2474 16.8343 21.2599 17.4136 21.6253 17.8381C22.1104 18.4036 23.6038 19.5277 22.4425 20.2552Z" fill="#90A4AE"/>
</svg>
