<svg width="34" height="34" viewBox="0 0 34 34" fill="none" xmlns="http://www.w3.org/2000/svg">
<g clip-path="url(#clip0_608_56)">
<path fill-rule="evenodd" clip-rule="evenodd" d="M33.66 10.1533C33.66 10.1533 33.3274 7.79378 32.3085 6.75492C31.0154 5.39067 29.5662 5.38429 28.9021 5.30514C24.1442 4.9585 17.0074 4.9585 17.0074 4.9585H16.9926C16.9926 4.9585 9.85575 4.9585 5.09787 5.30514C4.43275 5.38429 2.98456 5.39067 1.69044 6.75492C0.6715 7.79404 0.34 10.1533 0.34 10.1533C0.34 10.1533 0 12.9249 0 15.6951V18.2931C0 21.0644 0.34 23.8349 0.34 23.8349C0.34 23.8349 0.6715 26.1944 1.69044 27.2333C2.98456 28.5975 4.6835 28.5548 5.44 28.6971C8.16 28.9604 17 29.0417 17 29.0417C17 29.0417 24.1442 29.031 28.9021 28.6844C29.5662 28.6042 31.0154 28.5978 32.3085 27.2335C33.3274 26.1944 33.66 23.8351 33.66 23.8351C33.66 23.8351 34 21.0647 34 18.2931V15.6951C34 12.9249 33.66 10.1533 33.66 10.1533ZM13.4895 21.4413L13.4884 11.8207L22.6748 16.6476L13.4895 21.4413Z" fill="#90A4AE"/>
</g>
<defs>
<clipPath id="clip0_608_56">
<rect width="34" height="34" fill="white"/>
</clipPath>
</defs>
</svg>
